<mxfile host="app.diagrams.net" modified="2024-04-25T06:46:59.834Z" agent="Mozilla/5.0 (Windows NT 10.0; Win64; x64) AppleWebKit/537.36 (KHTML, like Gecko) Chrome/124.0.0.0 Safari/537.36 Edg/124.0.0.0" etag="hk67v2k9jF29vrpk9LEG" version="24.2.8" type="github">
  <diagram name="第 1 页" id="zH7G1TZUW6DjF8pYI8qu">
    <mxGraphModel dx="746" dy="467" grid="0" gridSize="10" guides="1" tooltips="1" connect="1" arrows="1" fold="1" page="1" pageScale="1" pageWidth="827" pageHeight="1169" math="0" shadow="0">
      <root>
        <mxCell id="0" />
        <mxCell id="1" parent="0" />
        <mxCell id="s78F-SYWZWvP6vOSIqDQ-5" style="edgeStyle=orthogonalEdgeStyle;rounded=0;orthogonalLoop=1;jettySize=auto;html=1;exitX=0.5;exitY=1;exitDx=0;exitDy=0;entryX=0.5;entryY=0;entryDx=0;entryDy=0;" parent="1" source="s78F-SYWZWvP6vOSIqDQ-1" target="s78F-SYWZWvP6vOSIqDQ-2" edge="1">
          <mxGeometry relative="1" as="geometry" />
        </mxCell>
        <mxCell id="s78F-SYWZWvP6vOSIqDQ-1" value="开始" style="ellipse;whiteSpace=wrap;html=1;" parent="1" vertex="1">
          <mxGeometry x="320" y="30" width="80" height="40" as="geometry" />
        </mxCell>
        <mxCell id="s78F-SYWZWvP6vOSIqDQ-6" style="edgeStyle=orthogonalEdgeStyle;rounded=0;orthogonalLoop=1;jettySize=auto;html=1;exitX=0.5;exitY=1;exitDx=0;exitDy=0;entryX=0.5;entryY=0;entryDx=0;entryDy=0;" parent="1" source="s78F-SYWZWvP6vOSIqDQ-2" edge="1">
          <mxGeometry relative="1" as="geometry">
            <mxPoint x="360" y="160" as="targetPoint" />
          </mxGeometry>
        </mxCell>
        <mxCell id="s78F-SYWZWvP6vOSIqDQ-2" value="申请人" style="rounded=0;whiteSpace=wrap;html=1;" parent="1" vertex="1">
          <mxGeometry x="320" y="100" width="80" height="40" as="geometry" />
        </mxCell>
        <mxCell id="s78F-SYWZWvP6vOSIqDQ-19" style="edgeStyle=orthogonalEdgeStyle;rounded=0;orthogonalLoop=1;jettySize=auto;html=1;exitX=0.5;exitY=1;exitDx=0;exitDy=0;entryX=0.5;entryY=0;entryDx=0;entryDy=0;" parent="1" source="s78F-SYWZWvP6vOSIqDQ-8" target="s78F-SYWZWvP6vOSIqDQ-16" edge="1">
          <mxGeometry relative="1" as="geometry" />
        </mxCell>
        <mxCell id="s78F-SYWZWvP6vOSIqDQ-8" value="接收需求" style="rounded=0;whiteSpace=wrap;html=1;" parent="1" vertex="1">
          <mxGeometry x="318" y="167" width="80" height="40" as="geometry" />
        </mxCell>
        <mxCell id="s78F-SYWZWvP6vOSIqDQ-20" style="edgeStyle=orthogonalEdgeStyle;rounded=0;orthogonalLoop=1;jettySize=auto;html=1;exitX=0.5;exitY=1;exitDx=0;exitDy=0;entryX=0.5;entryY=0;entryDx=0;entryDy=0;" parent="1" source="s78F-SYWZWvP6vOSIqDQ-16" target="s78F-SYWZWvP6vOSIqDQ-17" edge="1">
          <mxGeometry relative="1" as="geometry" />
        </mxCell>
        <mxCell id="s78F-SYWZWvP6vOSIqDQ-16" value="抄送肖鹏、黎烙华" style="rounded=0;whiteSpace=wrap;html=1;" parent="1" vertex="1">
          <mxGeometry x="318" y="238" width="80" height="40" as="geometry" />
        </mxCell>
        <mxCell id="s78F-SYWZWvP6vOSIqDQ-17" value="结束" style="ellipse;whiteSpace=wrap;html=1;" parent="1" vertex="1">
          <mxGeometry x="318" y="318" width="80" height="40" as="geometry" />
        </mxCell>
      </root>
    </mxGraphModel>
  </diagram>
</mxfile>
